<?xml version="1.0" encoding="UTF-8"?>
<svg width="14px" height="14px" viewBox="0 0 14 14" version="1.1" xmlns="http://www.w3.org/2000/svg" xmlns:xlink="http://www.w3.org/1999/xlink">
    <title>icon/增加</title>
    <g id="基础数据" stroke="none" stroke-width="1" fill="none" fill-rule="evenodd">
        <g id="2-02新增和修改航线" transform="translate(-233, -479)" fill="#07C160" fill-rule="nonzero">
            <g id="新增用户" transform="translate(145, 310)">
                <g id="编组-5备份-4" transform="translate(88, 166)">
                    <g id="形状" transform="translate(0, 3)">
                        <path d="M5.99993334,5.99993334 L3.9998,5.99993334 C3.44747843,5.99993334 2.99973334,6.44767843 2.99973334,7 C2.99973334,7.55232157 3.44747843,8.00006666 3.9998,8.00006666 L5.99993334,8.00006666 L5.99993334,10.0002 C5.99993334,10.5525216 6.44767843,11.0002667 7,11.0002667 C7.55232157,11.0002667 8.00006666,10.5525216 8.00006666,10.0002 L8.00006666,8.00006666 L10.0002,8.00006666 C10.5525216,8.00006666 11.0002667,7.55232157 11.0002667,7 C11.0002667,6.44767843 10.5525216,5.99993334 10.0002,5.99993334 L8.00006666,5.99993334 L8.00006666,3.9998 C8.00006666,3.44747843 7.55232157,2.99973334 7,2.99973334 C6.44767843,2.99973334 5.99993334,3.44747843 5.99993334,3.9998 L5.99993334,5.99993334 Z M7,14 C3.13413334,14 0,10.8658667 0,7 C0,3.13413334 3.13413334,0 7,0 C10.8658667,0 14,3.13413334 14,7 C14,10.8658667 10.8658667,14 7,14 Z"></path>
                    </g>
                </g>
            </g>
        </g>
    </g>
</svg>