<?xml version="1.0" encoding="UTF-8"?>
<svg width="14px" height="14px" viewBox="0 0 14 14" version="1.1" xmlns="http://www.w3.org/2000/svg" xmlns:xlink="http://www.w3.org/1999/xlink">
    <title>删除备份 2</title>
    <g id="基础数据" stroke="none" stroke-width="1" fill="none" fill-rule="evenodd">
        <g id="2-02新增和修改航线" transform="translate(-1201, -443)" fill-rule="nonzero">
            <g id="新增用户备份" transform="translate(761, 310)">
                <g id="输入框备份-2" transform="translate(34, 124)">
                    <g id="删除备份-2" transform="translate(406, 9)">
                        <rect id="矩形" fill="#000000" opacity="0" x="0" y="0" width="14" height="14"></rect>
                        <path d="M12.3948655,2.01140251 C12.7127139,2.01140251 12.9749389,2.06461422 13.1815403,2.17103763 C13.3881418,2.27746104 13.5523635,2.41049031 13.6742054,2.57012543 C13.7960473,2.72976055 13.8808068,2.90269859 13.9284841,3.08893957 C13.9761614,3.27518054 14,3.44811859 14,3.60775371 C14,3.6822501 13.9973513,3.74078297 13.9920538,3.78335234 C13.9867563,3.8259217 13.9841076,3.8631699 13.9841076,3.89509692 L13.9841076,3.99087799 L12.9352078,3.99087799 L12.9352078,12.3717218 C12.9352078,12.5845686 12.892828,12.7894337 12.8080685,12.986317 C12.7233089,13.1832003 12.601467,13.3561384 12.4425428,13.5051311 C12.2836186,13.6541239 12.0902608,13.7738502 11.8624694,13.8643101 C11.6346781,13.95477 11.3724531,14 11.0757946,14 L3.98777506,14 C3.71230644,14 3.45273024,13.9574306 3.20904645,13.8722919 C2.96536267,13.7871532 2.75611247,13.6674268 2.58129584,13.5131129 C2.40647922,13.3587989 2.26874491,13.172558 2.16809291,12.95439 C2.06744091,12.736222 2.01711491,12.4887875 2.01711491,12.2120867 L2.01711491,3.99087799 L1.03178484,3.99087799 C1.02118989,3.98023565 1.01589242,3.9536298 1.01589242,3.91106043 C1.00529747,3.85784873 1,3.69289244 1,3.41619156 C1,3.27784113 1.03178484,3.12352718 1.09535452,2.95324971 C1.15892421,2.78297225 1.25427873,2.62599772 1.38141809,2.48232611 C1.50855746,2.3386545 1.67277914,2.21892816 1.87408313,2.12314709 C2.07538712,2.02736602 2.31377343,1.97947548 2.58924205,1.97947548 L4.00366748,1.97947548 L4.00366748,1.00570125 C4.00366748,0.72900038 4.099022,0.492208286 4.28973105,0.295324971 C4.4804401,0.0984416572 4.71352893,0 4.98899756,0 L9.96332518,0 C10.3341483,0 10.5910758,0.0984416572 10.7341076,0.295324971 C10.8771394,0.492208286 10.9486553,0.72900038 10.9486553,1.00570125 L10.9486553,1.995439 C11.1711491,2.00608134 11.4095355,2.01140251 11.6638142,2.01140251 L12.3948655,2.01140251 Z M4.98899756,2.01140251 L9.96332518,2.01140251 L9.96332518,1.00570125 L4.98899756,1.00570125 L4.98899756,2.01140251 Z M4.49633252,12.1163056 C4.83537082,12.1163056 5.00488998,11.8981376 5.00488998,11.4618016 L5.00488998,4.05473204 L4.0195599,4.05473204 L4.0195599,11.4618016 C4.0195599,11.6852908 4.05399348,11.8502471 4.12286064,11.9566705 C4.19172779,12.0630939 4.31621842,12.1163056 4.49633252,12.1163056 L4.49633252,12.1163056 Z M7.5,12.1003421 C7.6801141,12.1003421 7.80195599,12.049791 7.86552567,11.9486887 C7.92909535,11.8475865 7.9608802,11.6852908 7.9608802,11.4618016 L7.9608802,4.05473204 L6.97555012,4.05473204 L6.97555012,11.4618016 C6.97555012,11.8874952 7.15036675,12.1003421 7.5,12.1003421 L7.5,12.1003421 Z M10.4877751,12.0684151 C10.6784841,12.0684151 10.8056235,12.0178639 10.8691932,11.9167617 C10.9327628,11.8156594 10.9645477,11.6533637 10.9645477,11.4298746 L10.9645477,4.05473204 L9.96332518,4.05473204 L9.96332518,11.4298746 C9.96332518,11.8555682 10.1381418,12.0684151 10.4877751,12.0684151 L10.4877751,12.0684151 Z" id="形状" fill="#FA5151"></path>
                    </g>
                </g>
            </g>
        </g>
    </g>
</svg>